<?xml version="1.0" encoding="UTF-8"?>
<svg version="1.1" xmlns="http://www.w3.org/2000/svg" width="650" height="800">
<path d="M0 0 C1.14621826 0.00483398 2.29243652 0.00966797 3.47338867 0.01464844 C24.00681214 0.16051349 46.49689359 1.99961188 65.44921875 10.640625 C69.64555732 12.33521443 73.61360679 13.11485865 78.0625 13.8125 C78.84173828 13.94205078 79.62097656 14.07160156 80.42382812 14.20507812 C82.32292168 14.5196519 84.22379356 14.82345882 86.125 15.125 C86.125 16.445 86.125 17.765 86.125 19.125 C87.5790625 19.310625 87.5790625 19.310625 89.0625 19.5 C96.01671394 20.51356964 101.81462337 21.96981169 108.125 25.125 C109.32125 25.269375 110.5175 25.41375 111.75 25.5625 C115.78046439 26.23424406 116.34250724 27.28015802 119.125 30.125 C120.93800327 31.34357597 122.7898327 32.50551622 124.66796875 33.62109375 C125.74240234 34.26240234 126.81683594 34.90371094 127.92382812 35.56445312 C129.04208984 36.22380859 130.16035156 36.88316406 131.3125 37.5625 C132.96088867 38.54573242 132.96088867 38.54573242 134.64257812 39.54882812 C140.74753335 43.17830955 146.88926609 46.72487559 153.125 50.125 C153.125 50.785 153.125 51.445 153.125 52.125 C153.785 52.125 154.445 52.125 155.125 52.125 C156.28450258 53.25039956 157.43698689 54.38403276 158.55078125 55.5546875 C161.06766081 58.0653217 163.82160986 60.29906847 166.55078125 62.57421875 C167.07027344 63.08597656 167.58976562 63.59773438 168.125 64.125 C168.125 64.785 168.125 65.445 168.125 66.125 C168.764375 66.393125 169.40375 66.66125 170.0625 66.9375 C172.125 68.125 172.125 68.125 173.125 71.125 C174.98831724 72.17931843 174.98831724 72.17931843 177.125 73.125 C178.38708117 74.03955158 179.61748604 74.99940263 180.8125 76 C181.41449219 76.49242188 182.01648438 76.98484375 182.63671875 77.4921875 C184.34735578 79.36894939 184.55195423 80.69827576 185.125 83.125 C186.49136013 83.97897508 187.85987259 84.82967469 189.23828125 85.6640625 C195.42589646 90.45530078 201.72196384 98.45244519 203.98828125 106 C205.44234013 109.99741272 207.70247512 112.80796569 210.3125 116.125 C214.91082927 122.15871105 218.41373407 128.18504384 221.6328125 135.0390625 C222.9034309 137.66678119 224.25792166 140.01666675 225.875 142.4375 C227.93717111 145.62752521 229.14273465 148.6887225 230.25 152.3125 C231.42718898 156.09632173 232.74370933 159.82606168 234.0625 163.5625 C234.32305176 164.30693359 234.58360352 165.05136719 234.85205078 165.81835938 C236.25582956 169.79704946 237.75850037 173.68977092 239.4375 177.5625 C241.16013974 181.70250662 241.6651991 185.53054001 241.8515625 189.99609375 C242.00311993 192.42337762 242.00311993 192.42337762 244.125 195.125 C244.82347182 197.58432513 245.43981858 200.00919839 246 202.5 C246.25825562 203.62668091 246.25825562 203.62668091 246.52172852 204.77612305 C248.1870279 212.1711428 249.64285704 219.6023585 250.99316406 227.06079102 C251.73189002 231.0961444 252.53695113 235.11028349 253.3894043 239.12304688 C257.13215416 257.37682624 257.94992731 274.9611177 257.99199295 293.51770782 C258.00286101 296.63245666 258.03188001 299.7469437 258.06047153 302.86157227 C258.26205336 325.22271577 258.10267911 347.57312884 257.23266602 369.92041016 C257.16549713 371.91963646 257.13771946 373.92104355 257.16967773 375.92114258 C257.125 378.125 257.125 378.125 256.15625 380.34765625 C254.66094834 384.3747755 254.73662109 388.29791794 254.625 392.5625 C254.39465655 401.32232583 254.39465655 401.32232583 253.12109375 405.11328125 C251.7184527 409.35420771 251.78719333 413.43637165 251.6875 417.875 C251.46411064 424.20152323 251.03624521 429.75852891 248.875 435.75390625 C247.9627269 438.63801964 247.57950848 441.43793511 247.1875 444.4375 C245.35699338 458.2797608 243.05305204 472.01803806 238.125 485.125 C237.78855469 486.15109375 237.45210937 487.1771875 237.10546875 488.234375 C236.125 491.125 236.125 491.125 234.5625 494.4375 C233.34071894 497.57163403 232.99959155 498.96274776 232.875 502.125 C232.44700219 507.21817396 230.30723401 511.31345768 228.06665039 515.81103516 C224.9256265 522.23669083 222.65310933 528.89499007 220.43505859 535.68676758 C220.16129395 536.50943115 219.8875293 537.33209473 219.60546875 538.1796875 C219.24811646 539.28546143 219.24811646 539.28546143 218.88354492 540.41357422 C218.125 542.125 218.125 542.125 216.125 543.125 C215.24197598 544.8315518 215.24197598 544.8315518 214.50390625 546.9140625 C214.20806641 547.69136719 213.91222656 548.46867188 213.60742188 549.26953125 C213.30384766 550.08808594 213.00027344 550.90664063 212.6875 551.75 C212.08579207 553.3467905 211.48294172 554.94315101 210.87890625 556.5390625 C210.58532227 557.31515869 210.29173828 558.09125488 209.98925781 558.89086914 C208.2726629 563.32831548 206.41313131 567.69737977 204.25 571.9375 C203.91355469 572.60136719 203.57710937 573.26523437 203.23046875 573.94921875 C202.86566406 574.66722656 202.50085938 575.38523437 202.125 576.125 C201.26977439 577.83280345 200.41564172 579.54115458 199.5625 581.25 C199.13710938 582.095625 198.71171875 582.94125 198.2734375 583.8125 C197.38072853 585.61006364 196.52624856 587.42663356 195.6875 589.25 C193.918763 592.50447608 191.81260638 595.30076009 189.546875 598.22265625 C187.97790023 600.24673913 187.97790023 600.24673913 186.375 603.125 C185.9625 603.785 185.55 604.445 185.125 605.125 C184.465 605.125 183.805 605.125 183.125 605.125 C182.83625 605.7025 182.5475 606.28 182.25 606.875 C181.87875 607.6175 181.5075 608.36 181.125 609.125 C180.815625 609.805625 180.50625 610.48625 180.1875 611.1875 C179.125 613.125 179.125 613.125 177.74609375 614.42578125 C175.09491913 617.20472332 173.48350369 620.60581368 171.625 623.9453125 C170.125 626.125 170.125 626.125 167.125 627.125 C166.86332031 627.8571875 166.60164063 628.589375 166.33203125 629.34375 C164.69494923 633.11592603 161.95715669 635.1330079 158.8125 637.625 C153.86958549 641.62187538 149.31189704 645.74514146 145 650.4375 C141.48769399 653.72074257 137.68003095 656.40476335 133.74609375 659.16015625 C131.08788319 661.04179469 131.08788319 661.04179469 128.97265625 663.37109375 C127.125 665.125 127.125 665.125 124.125 665.125 C123.7228125 666.0840625 123.7228125 666.0840625 123.3125 667.0625 C122.125 669.125 122.125 669.125 119.125 670.125 C119.125 670.785 119.125 671.445 119.125 672.125 C105.93989907 679.99142834 92.18985211 684.78353564 77.56079102 689.328125 C75.15283916 690.04985701 75.15283916 690.04985701 73.125 691.125 C70.7920134 691.16522391 68.45793334 691.16820247 66.125 691.125 C66.125 691.785 66.125 692.445 66.125 693.125 C32.629416 693.83017019 32.629416 693.83017019 23.125 687.125 C22.39539063 686.63386719 21.66578125 686.14273438 20.9140625 685.63671875 C15.30762242 681.67286725 15.30762242 681.67286725 14.125 678.125 C13.135 677.795 12.145 677.465 11.125 677.125 C2.90019994 669.30949094 -5.02842126 657.42525906 -6.875 646.125 C-11.02023253 646.36883721 -13.26705384 646.59119362 -16.4375 649.375 C-17.241875 650.2825 -18.04625 651.19 -18.875 652.125 C-23.21538999 655.96898175 -27.75027118 659.09916477 -32.6875 662.125 C-33.39817627 662.56360352 -34.10885254 663.00220703 -34.84106445 663.45410156 C-45.92350511 670.26042044 -57.28236881 676.57199151 -69.7734375 680.41015625 C-72.03090492 681.17803086 -74.10310823 682.15198506 -76.25 683.1875 C-80.5467533 685.16656501 -84.73159557 685.96384205 -89.38671875 686.69140625 C-92.00074713 687.07552079 -92.00074713 687.07552079 -94.875 688.1875 C-97.76445238 689.09045387 -100.1203739 689.35267974 -103.125 689.5625 C-106.85965444 689.83247502 -109.93236043 690.39199073 -113.4375 691.6875 C-131.29119664 697.45953505 -153.28435178 691.31906659 -170.875 687.125 C-170.875 686.465 -170.875 685.805 -170.875 685.125 C-171.70773438 684.87492188 -172.54046875 684.62484375 -173.3984375 684.3671875 C-177.31170854 682.96896257 -180.84472851 681.20870126 -184.5 679.25 C-185.15484375 678.91097656 -185.8096875 678.57195313 -186.484375 678.22265625 C-190.14038948 676.27623559 -193.24833416 674.41833229 -195.875 671.125 C-195.875 670.135 -195.875 669.145 -195.875 668.125 C-196.865 667.795 -197.855 667.465 -198.875 667.125 C-200.62890625 665.34765625 -200.62890625 665.34765625 -202.4375 663.1875 C-204.20630568 661.09156037 -205.93494888 659.06505112 -207.875 657.125 C-208.60490316 655.43295176 -209.33061367 653.73881581 -210.0234375 652.03125 C-210.94586267 649.84712435 -210.94586267 649.84712435 -212.875 646.9375 C-215.74968744 642.06589227 -216.64180962 636.58627168 -217.875 631.125 C-218.24741052 629.81176291 -218.6220647 628.49915779 -219 627.1875 C-222.69785486 611.89467653 -219.77028057 596.48779522 -216.55859375 581.39453125 C-216.12800011 579.33506337 -215.74583728 577.26429623 -215.43359375 575.18359375 C-214.75644236 571.47583473 -213.66019339 567.95276243 -212.5 564.375 C-212.0462254 562.957239 -211.59309937 561.53927025 -211.140625 560.12109375 C-210.92212891 559.43772949 -210.70363281 558.75436523 -210.47851562 558.05029297 C-209.68728763 555.52617323 -208.9695844 552.98283844 -208.25 550.4375 C-207.23034599 546.98232954 -205.95935499 544.10264998 -203.875 541.125 C-205.195 541.125 -206.515 541.125 -207.875 541.125 C-207.875 541.785 -207.875 542.445 -207.875 543.125 C-208.66003906 543.30675781 -209.44507813 543.48851562 -210.25390625 543.67578125 C-211.30449219 543.92714844 -212.35507813 544.17851563 -213.4375 544.4375 C-214.47003906 544.68113281 -215.50257813 544.92476562 -216.56640625 545.17578125 C-219.93816585 546.06321074 -219.93816585 546.06321074 -223.23828125 547.6015625 C-227.29257027 549.29992202 -231.21319268 550.28625166 -235.5 551.1875 C-236.28979248 551.35596436 -237.07958496 551.52442871 -237.89331055 551.69799805 C-240.21825144 552.18580889 -242.54575493 552.65822566 -244.875 553.125 C-246.06480469 553.36734375 -247.25460938 553.6096875 -248.48046875 553.859375 C-262.94180018 556.4662898 -279.10875686 554.55780425 -291.85546875 546.77734375 C-301.79902876 538.64170374 -307.94093875 524.62084887 -309.875 512.125 C-311.11564691 496.89725209 -310.31591274 483.60643362 -301.5078125 470.78125 C-299.46991205 467.46600525 -298.5791696 464.27427006 -297.61328125 460.53515625 C-296.34204921 456.38515535 -294.09436877 452.82852868 -291.875 449.125 C-291.16554785 447.83394751 -290.4571236 446.54232933 -289.75 445.25 C-287.875 442.125 -287.875 442.125 -286.44140625 440.90625 C-284.04205569 438.17781146 -283.1176051 434.87953277 -281.9375 431.5 C-281.41226285 430.04481084 -280.88493231 428.59037549 -280.35546875 427.13671875 C-280.10200684 426.43981934 -279.84854492 425.74291992 -279.58740234 425.02490234 C-278.47051658 422.04628515 -277.14826768 419.17569104 -275.81640625 416.2890625 C-274.26768261 412.72892601 -272.99895962 409.0697621 -271.70703125 405.41015625 C-270.875 403.125 -270.875 403.125 -269.875 401.125 C-269.79470032 399.79262018 -269.73613218 398.45891114 -269.6875 397.125 C-269.22436832 391.81442341 -267.67486811 387.12598372 -265.9375 382.125 C-262.39262428 371.83544924 -260.64482131 362.60481341 -260.3034668 351.71875 C-260.10774399 346.57468078 -259.21687157 342.09602422 -257.875 337.125 C-257.51580679 335.12948218 -257.18003431 333.12951121 -256.875 331.125 C-256.37148615 327.8161947 -255.75687468 324.69295772 -254.87280273 321.45947266 C-253.79319926 317.17224173 -253.49016486 313.05463663 -253.34765625 308.6484375 C-253.27896525 307.0063411 -253.21011098 305.36425151 -253.14111328 303.72216797 C-253.10826233 302.87023865 -253.07541138 302.01830933 -253.04156494 301.14056396 C-250.73161795 242.52752191 -250.73161795 242.52752191 -243.78125 221.875 C-242.84241126 219.02611003 -242.57910724 216.61162545 -242.4375 213.625 C-242.09949787 209.06504393 -240.99657359 206.19134937 -238.875 202.125 C-238.5421647 199.94908925 -238.37279477 197.78513166 -238.19604492 195.59155273 C-237.88401959 193.19429654 -237.34090279 191.16999321 -236.55078125 188.890625 C-236.14496826 187.71632935 -236.14496826 187.71632935 -235.73095703 186.51831055 C-234.37549557 182.72835369 -232.97625163 178.95604043 -231.5625 175.1875 C-228.86117571 167.93483615 -226.35028958 160.63786885 -223.94091797 153.28369141 C-222.37845387 148.54559035 -220.66978131 143.90860991 -218.7421875 139.3046875 C-217.53540947 136.27143463 -216.59880281 133.16733134 -215.68359375 130.03515625 C-214.75677539 127.84571578 -213.56492056 126.7713659 -211.875 125.125 C-210.89784391 123.32309386 -210.89784391 123.32309386 -210.1875 121.4375 C-209.754375 120.344375 -209.32125 119.25125 -208.875 118.125 C-208.215 118.125 -207.555 118.125 -206.875 118.125 C-206.5965625 117.56039062 -206.318125 116.99578125 -206.03125 116.4140625 C-204.85433367 114.08408625 -203.63031643 111.78865618 -202.375 109.5 C-201.9521875 108.72398437 -201.529375 107.94796875 -201.09375 107.1484375 C-199.875 105.125 -199.875 105.125 -197.875 103.125 C-197.2324765 101.05625966 -197.2324765 101.05625966 -196.875 99.125 C-196.235625 99.021875 -195.59625 98.91875 -194.9375 98.8125 C-194.256875 98.585625 -193.57625 98.35875 -192.875 98.125 C-192.38 96.64 -192.38 96.64 -191.875 95.125 C-191.215 95.125 -190.555 95.125 -189.875 95.125 C-189.606875 94.3825 -189.33875 93.64 -189.0625 92.875 C-187.92223249 90.23438051 -186.78119694 88.26947156 -184.875 86.125 C-184.215 86.125 -183.555 86.125 -182.875 86.125 C-182.4109375 84.949375 -182.4109375 84.949375 -181.9375 83.75 C-180.875 81.125 -180.875 81.125 -179.875 79.125 C-179.215 79.125 -178.555 79.125 -177.875 79.125 C-177.63136719 78.56425781 -177.38773438 78.00351563 -177.13671875 77.42578125 C-173.25953183 70.35561686 -166.07188862 63.30910073 -159.875 58.125 C-159.215 58.125 -158.555 58.125 -157.875 58.125 C-157.875 57.465 -157.875 56.805 -157.875 56.125 C-156.08203125 54.57421875 -156.08203125 54.57421875 -153.6875 52.8125 C-151.03220195 50.81999728 -148.76299979 49.00415767 -146.5 46.5625 C-142.46414264 42.81491817 -137.75903839 40.61342336 -132.875 38.125 C-131.59093735 37.45222069 -130.30709364 36.77902337 -129.0234375 36.10546875 C-121.99304764 32.459799 -115.12898069 29.32290981 -107.5390625 26.98046875 C-103.49729163 25.68259805 -99.71309635 23.92534416 -95.875 22.125 C-85.71312662 17.43375167 -75.69264132 13.25937928 -64.953125 10.0625 C-62.45100412 9.30043273 -60.0165448 8.46169199 -57.5625 7.5625 C-51.48614612 5.50726266 -45.12173809 4.55059927 -38.81591797 3.46142578 C-37.07481167 3.15963402 -35.33605531 2.84435812 -33.59765625 2.52734375 C-22.42218363 0.54483547 -11.33794843 -0.05051436 0 0 Z " fill="#FDFDFD" transform="translate(349.875,50.875)"/>
<path d="M0 0 C0.72960937 -0.01611328 1.45921875 -0.03222656 2.2109375 -0.04882812 C7.40278355 -0.0534637 10.98138524 0.99069262 15.625 3.3125 C15.625 3.9725 15.625 4.6325 15.625 5.3125 C16.32625 5.498125 17.0275 5.68375 17.75 5.875 C24.18796963 9.09398482 27.09918711 14.81399475 29.625 21.3125 C29.88861328 21.98933838 30.15222656 22.66617676 30.42382812 23.36352539 C38.23480541 44.31651924 38.09177273 67.02599534 30.16015625 87.9765625 C25.3252158 98.48302342 17.89208451 103.98175293 7.625 108.6875 C-0.51783794 110.38392457 -7.22830889 109.67275559 -14.375 105.3125 C-25.90033599 97.28221175 -28.54840513 86.33700579 -31.375 73.3125 C-31.55369629 72.51996826 -31.73239258 71.72743652 -31.91650391 70.91088867 C-32.38757826 68.24121652 -32.50437971 65.7756103 -32.5078125 63.06640625 C-32.51014893 62.07108887 -32.51248535 61.07577148 -32.51489258 60.05029297 C-32.49028607 54.80386369 -32.45069286 49.5584605 -32.375 44.3125 C-32.36774902 43.56564941 -32.36049805 42.81879883 -32.35302734 42.04931641 C-32.15194364 28.53580959 -28.33290738 16.18218224 -18.61328125 6.5703125 C-12.76961825 1.27172002 -7.90493108 -0.03454952 0 0 Z " fill="#030302" transform="translate(355.375,243.6875)"/>
<path d="M0 0 C10.72240961 6.17438083 15.88531031 14.3324097 19.25 26.125 C20.90226997 32.4554995 21.62630717 38.67996182 21.6328125 45.21875 C21.63410156 46.47300781 21.63539063 47.72726562 21.63671875 49.01953125 C21.63285156 50.31246094 21.62898438 51.60539062 21.625 52.9375 C21.62886719 54.23042969 21.63273437 55.52335937 21.63671875 56.85546875 C21.63542969 58.10972656 21.63414062 59.36398437 21.6328125 60.65625 C21.63168457 61.78998047 21.63055664 62.92371094 21.62939453 64.09179688 C21.49378479 67.59820419 21.05353333 70.97448114 20.5 74.4375 C19.84 74.4375 19.18 74.4375 18.5 74.4375 C18.29375 75.695625 18.0875 76.95375 17.875 78.25 C15.43612183 89.00477527 9.65180498 96.69380786 0.57421875 102.71484375 C-6.14252043 106.75639345 -12.63147263 107.52323693 -20.25 105.82421875 C-29.28235556 102.97651776 -34.89655272 97.89645391 -39.3125 89.5625 C-42.58423578 82.39111956 -44.50537971 75.22869228 -45.5 67.4375 C-45.83 67.1075 -46.16 66.7775 -46.5 66.4375 C-47.69376416 46.2077117 -48.65264899 22.8712503 -35.24609375 6.19140625 C-25.67760619 -3.41989334 -12.26513512 -5.83020329 0 0 Z " fill="#030303" transform="translate(486.5,246.5625)"/>
<path d="M0 0 C-0.2882666 0.70398926 -0.5765332 1.40797852 -0.87353516 2.13330078 C-6.58518654 16.66867367 -11.36151713 31.80997013 -15 47 C-15.33 47 -15.66 47 -16 47 C-15.74743685 39.76406574 -14.8007197 33.6493134 -12.10546875 26.92578125 C-10.84834393 23.5986205 -9.92515858 20.24619135 -9 16.8125 C-7.51515143 11.45643907 -5.71181982 6.8425354 -3 2 C-4.32 2 -5.64 2 -7 2 C-7 2.66 -7 3.32 -7 4 C-8.65 4 -10.3 4 -12 4 C-10.720327 1.44065399 -9.75798964 1.3010767 -7.125 0.3125 C-6.42632812 0.04050781 -5.72765625 -0.23148438 -5.0078125 -0.51171875 C-3 -1 -3 -1 0 0 Z " fill="#EAEAEA" transform="translate(149,590)"/>
<path d="M0 0 C0.99 0 1.98 0 3 0 C1.62972412 3.71645555 -0.09262086 6.89435836 -2.1875 10.25 C-5.65908877 16.07471589 -8.24029407 22.07181374 -10.69018555 28.38769531 C-12.81209955 33.81209955 -12.81209955 33.81209955 -15 36 C-14.31452881 32.1698414 -13.28841521 28.5666239 -12.0625 24.875 C-11.72347656 23.84117187 -11.38445312 22.80734375 -11.03515625 21.7421875 C-10 19 -10 19 -8 16 C-7.690625 14.845 -7.38125 13.69 -7.0625 12.5 C-6.01745319 9.05749285 -5.49594103 8.28794595 -3 6 C-2.29289322 4.35008418 -1.62056011 2.68437744 -1 1 C-0.67 0.67 -0.34 0.34 0 0 Z " fill="#EAEBEA" transform="translate(141,170)"/>
<path d="M0 0 C0.33 0 0.66 0 1 0 C1.33 10.56 1.66 21.12 2 32 C1.67 32 1.34 32 1 32 C-1.93327473 22.02686591 -2.97569905 11.27363508 -1 1 C-0.67 0.67 -0.34 0.34 0 0 Z " fill="#EDEDED" transform="translate(131,650)"/>
<path d="M0 0 C0.49628906 0.38671875 0.99257813 0.7734375 1.50390625 1.171875 C9.30727567 7.15396465 16.70951235 10.8415702 26 14 C25.34 14.66 24.68 15.32 24 16 C14.32595082 13.51584959 5.83441713 10.46931519 0 2 C0 1.34 0 0.68 0 0 Z " fill="#E8E8E8" transform="translate(51,588)"/>
<path d="M0 0 C-5.31093419 2.46756355 -10.47323061 4.00633378 -16.1875 5.25 C-17.37762695 5.5284375 -17.37762695 5.5284375 -18.59179688 5.8125 C-19.35943359 5.98265625 -20.12707031 6.1528125 -20.91796875 6.328125 C-21.60656982 6.4818457 -22.2951709 6.63556641 -23.00463867 6.79394531 C-25.24172754 7.02496244 -26.86518494 6.66311591 -29 6 C-25.48101101 3.65400734 -22.26762939 3.17323984 -18.1875 2.5 C-0.99719227 -0.38353549 -0.99719227 -0.38353549 0 0 Z " fill="#EAE9EA" transform="translate(130,597)"/>
<path d="M0 0 C1.32 0.33 2.64 0.66 4 1 C4 1.66 4 2.32 4 3 C4.66 3 5.32 3 6 3 C7.15950258 4.12539956 8.31198689 5.25903276 9.42578125 6.4296875 C11.94266081 8.9403217 14.69660986 11.17406847 17.42578125 13.44921875 C17.94527344 13.96097656 18.46476563 14.47273438 19 15 C19 15.66 19 16.32 19 17 C19.99 17.33 20.98 17.66 22 18 C21.01 18.33 20.02 18.66 19 19 C18.34644531 18.32904297 18.34644531 18.32904297 17.6796875 17.64453125 C11.15784899 10.61275244 11.15784899 10.61275244 3 6 C0 2.55555556 0 2.55555556 0 0 Z " fill="#EBEBEB" transform="translate(499,100)"/>
<path d="M0 0 C5.94 0.33 11.88 0.66 18 1 C17.67 1.99 17.34 2.98 17 4 C11.72 3.67 6.44 3.34 1 3 C0.67 2.01 0.34 1.02 0 0 Z " fill="#F0F0F0" transform="translate(78,602)"/>
<path d="M0 0 C0.66 0.33 1.32 0.66 2 1 C1.35755277 4.43814183 0.71046074 7.87539335 0.0625 11.3125 C-0.11990234 12.28896484 -0.30230469 13.26542969 -0.49023438 14.27148438 C-0.75610352 15.67817383 -0.75610352 15.67817383 -1.02734375 17.11328125 C-1.18968506 17.97735596 -1.35202637 18.84143066 -1.51928711 19.73168945 C-2 22 -2 22 -3 25 C-3.66 25 -4.32 25 -5 25 C-3.70834692 16.56626517 -2.00616752 8.2921591 0 0 Z " fill="#EAEBEA" transform="translate(594,502)"/>
<path d="M0 0 C1.11991797 3.36315792 0.85748516 5.57005937 0.00390625 8.984375 C-0.22490234 9.91894531 -0.45371094 10.85351562 -0.68945312 11.81640625 C-0.93630859 12.78449219 -1.18316406 13.75257813 -1.4375 14.75 C-1.68048828 15.73355469 -1.92347656 16.71710938 -2.17382812 17.73046875 C-2.77428331 20.15583673 -3.38326726 22.57872945 -4 25 C-4.33 25 -4.66 25 -5 25 C-5.31647501 18.41263122 -5.32595465 13.85368019 -2 8 C-1.6186926 5.67402489 -1.27539746 3.34087842 -1 1 C-0.67 0.67 -0.34 0.34 0 0 Z " fill="#EBEBEB" transform="translate(113,245)"/>
<path d="M0 0 C4.73866542 7.10799813 4.30792022 15.85201055 3 24 C2.67 24 2.34 24 2 24 C1.66252452 21.12543208 1.32989537 18.25043941 1 15.375 C0.90460937 14.56675781 0.80921875 13.75851562 0.7109375 12.92578125 C0.21746383 8.59026261 -0.11320717 4.37262689 0 0 Z " fill="#EAEAEA" transform="translate(603,299)"/>
<path d="M0 0 C1.95258928 3.23679222 2.17783445 5.33020739 1.75 9.0625 C1.61851563 10.34833984 1.61851563 10.34833984 1.484375 11.66015625 C1 14 1 14 -1 17 C-1.02699725 14.72923158 -1.04639453 12.45837179 -1.0625 10.1875 C-1.07990234 8.29064453 -1.07990234 8.29064453 -1.09765625 6.35546875 C-1 3 -1 3 0 0 Z " fill="#F1F0F1" transform="translate(102,295)"/>
<path d="M0 0 C1.32176485 0.90325616 2.63215066 1.82317903 3.9375 2.75 C4.66839844 3.26046875 5.39929688 3.7709375 6.15234375 4.296875 C8.20805399 6.19177915 8.62669176 7.27425729 9 10 C8.01 9.67 7.02 9.34 6 9 C6 8.34 6 7.68 6 7 C5.38125 6.71125 4.7625 6.4225 4.125 6.125 C2 5 2 5 0 3 C0 2.01 0 1.02 0 0 Z " fill="#EBECEC" transform="translate(525,123)"/>
<path d="M0 0 C0 0.99 0 1.98 0 3 C-2.1875 5.04296875 -2.1875 5.04296875 -5 7.1875 C-5.928125 7.90292969 -6.85625 8.61835937 -7.8125 9.35546875 C-8.8953125 10.16951172 -8.8953125 10.16951172 -10 11 C-10.33 10.34 -10.66 9.68 -11 9 C-10.34 9 -9.68 9 -9 9 C-9 8.34 -9 7.68 -9 7 C-7.125 4.875 -7.125 4.875 -5 3 C-4.34 3 -3.68 3 -3 3 C-3 2.34 -3 1.68 -3 1 C-2.01 0.67 -1.02 0.34 0 0 Z " fill="#ECEDEC" transform="translate(514,681)"/>
<path d="M0 0 C0.33 0 0.66 0 1 0 C1.59720137 5.82271337 -0.471757 9.9209404 -3 15 C-4.43410153 11.21180727 -3.51009497 8.93478721 -2.0625 5.25 C-1.49208984 3.77273438 -1.49208984 3.77273438 -0.91015625 2.265625 C-0.60980469 1.51796875 -0.30945313 0.7703125 0 0 Z " fill="#EAEAEB" transform="translate(581,552)"/>
<path d="M0 0 C3.9126984 1.3042328 6.37310241 2.78934739 9 6 C9 6.99 9 7.98 9 9 C4.44984107 7.48328036 2.49942736 3.83108947 0 0 Z " fill="#EBEAEB" transform="translate(535,135)"/>
<path d="M0 0 C0.66 0.99 1.32 1.98 2 3 C1.319375 3.5878125 1.319375 3.5878125 0.625 4.1875 C-1.27642919 6.30832487 -2.06204028 8.33042235 -3 11 C-3.99 10.34 -4.98 9.68 -6 9 C-4.02 6.03 -2.04 3.06 0 0 Z " fill="#D4D3D0" transform="translate(384,333)"/>
<path d="M0 0 C0.66 0.99 1.32 1.98 2 3 C-0.97 5.475 -0.97 5.475 -4 8 C-4.33 7.01 -4.66 6.02 -5 5 C-3.35 3.35 -1.7 1.7 0 0 Z " fill="#EFEFEE" transform="translate(186,113)"/>
<path d="M0 0 C0.66 0 1.32 0 2 0 C2.99 3.3 3.98 6.6 5 10 C1.94597912 8.47298956 1.34130519 6.04842088 0 3 C0 2.01 0 1.02 0 0 Z " fill="#EAEAEA" transform="translate(135,691)"/>
<path d="M0 0 C0.33 0 0.66 0 1 0 C1 3.63 1 7.26 1 11 C0.67 11 0.34 11 0 11 C0 7.37 0 3.74 0 0 Z " fill="#EBEBEB" transform="translate(126,789)"/>
<path d="" fill="#EFEEEE" transform="translate(0,0)"/>
<path d="" fill="#FDFEFD" transform="translate(0,0)"/>
<path d="" fill="#FFFFFE" transform="translate(0,0)"/>
<path d="" fill="#EEEFEE" transform="translate(0,0)"/>
</svg>
